<svg width="40" height="41" viewBox="0 0 40 41" fill="none" xmlns="http://www.w3.org/2000/svg">
<path d="M9.43333 15.593C9.43333 9.93772 14.1553 5.33583 19.9604 5.33583C25.7656 5.33583 30.4876 9.93674 30.4876 15.593C30.4876 17.7018 29.8312 19.6628 28.7066 21.2946L31.0974 25.3388C33.4832 22.7531 34.9375 19.3356 34.9375 15.593C34.9375 7.54612 28.2191 1 19.9604 1C11.7018 1 4.9834 7.54612 4.9834 15.593C4.9834 19.3356 6.43772 22.7531 8.82349 25.3388L11.2143 21.2946C10.0907 19.6628 9.43333 17.7018 9.43333 15.593Z" fill="#0D0D0D"/>
<path d="M19.961 30.1851C22.0464 30.1851 24.0337 29.7672 25.84 29.0134L23.5968 25.2186C22.4631 25.6265 21.2383 25.8492 19.961 25.8492C18.6837 25.8492 17.4589 25.6265 16.3252 25.2186L14.082 29.0134C15.8883 29.7672 17.8756 30.1851 19.961 30.1851Z" fill="#0D0D0D"/>
<path d="M15.2143 34.5554H9.63871L19.9605 17.0928L30.2823 34.5554H24.7068L27.2564 38.8577H37.9211L30.3673 26.0768L28.0473 22.1519L19.9605 8.47141L11.8748 22.1519L9.55477 26.0768L2 38.8577H12.6647L15.2143 34.5554Z" fill="#E10D1C"/>
</svg>
